<svg width="29" height="29" viewBox="0 0 29 29" fill="none" xmlns="http://www.w3.org/2000/svg">
<path d="M14.5 29C22.5081 29 29 22.5081 29 14.5C29 6.49187 22.5081 0 14.5 0C6.49187 0 0 6.49187 0 14.5C0 22.5081 6.49187 29 14.5 29Z" fill="#F7931A"/>
<path d="M21.015 12.7056C21.2996 10.8061 19.8523 9.78478 17.8749 9.10328L18.5165 6.52953L16.9505 6.13984L16.3252 8.64562C15.9138 8.54231 15.4914 8.44625 15.07 8.35019L15.6999 5.82809L14.1339 5.4375L13.4923 8.01034C13.1515 7.93241 12.8162 7.85628 12.4918 7.77472L12.4936 7.76656L10.3331 7.22734L9.9162 8.90028C9.9162 8.90028 11.0789 9.16672 11.0544 9.18303C11.6888 9.34163 11.803 9.76122 11.784 10.0947L11.0535 13.0264C11.097 13.0373 11.1532 13.0536 11.2167 13.0781L11.0508 13.0373L10.0268 17.1444C9.94882 17.3366 9.75216 17.6257 9.3081 17.516C9.32441 17.5387 8.16985 17.2323 8.16985 17.2323L7.39229 19.0249L9.43135 19.5333C9.81016 19.6285 10.1817 19.7282 10.5469 19.8215L9.89898 22.4242L11.4641 22.8139L12.1057 20.2402C12.5334 20.3553 12.9485 20.4622 13.3545 20.5637L12.7147 23.1266L14.2807 23.5163L14.9287 20.919C17.6003 21.4247 19.6085 21.2207 20.4541 18.8047C21.1356 16.8599 20.4205 15.737 19.0149 15.0057C20.039 14.7701 20.8093 14.0967 21.015 12.7056ZM17.4354 17.7244C16.9523 19.6702 13.6762 18.618 12.6141 18.3543L13.475 14.906C14.5372 15.1715 17.9419 15.6962 17.4354 17.7244ZM17.9202 12.6775C17.4789 14.4474 14.7529 13.5475 13.8693 13.3273L14.6486 10.2007C15.5322 10.421 18.3806 10.8315 17.9202 12.6775Z" fill="white"/>
</svg>
