<svg width="29" height="29" viewBox="0 0 29 29" fill="none" xmlns="http://www.w3.org/2000/svg">
<path d="M14.5 29C22.5081 29 29 22.5081 29 14.5C29 6.49187 22.5081 0 14.5 0C6.49187 0 0 6.49187 0 14.5C0 22.5081 6.49187 29 14.5 29Z" fill="#627EEA"/>
<path d="M14.9513 3.625V11.6634L21.7455 14.6994L14.9513 3.625Z" fill="white" fill-opacity="0.602"/>
<path d="M14.9513 3.625L8.15625 14.6994L14.9513 11.6634V3.625Z" fill="white"/>
<path d="M14.9513 19.9086V25.3706L21.75 15.9646L14.9513 19.9086Z" fill="white" fill-opacity="0.602"/>
<path d="M14.9513 25.3706V19.9077L8.15625 15.9646L14.9513 25.3706Z" fill="white"/>
<path d="M14.9513 18.6443L21.7455 14.6994L14.9513 11.6653V18.6443Z" fill="white" fill-opacity="0.2"/>
<path d="M8.15625 14.6994L14.9513 18.6443V11.6653L8.15625 14.6994Z" fill="white" fill-opacity="0.602"/>
</svg>
