<svg width="80" height="81" viewBox="0 0 80 81" fill="none" xmlns="http://www.w3.org/2000/svg">
<path d="M40.4899 79.1268C61.1192 79.1268 77.8426 62.4035 77.8426 41.7742C77.8426 21.1449 61.1192 4.42151 40.4899 4.42151C19.8606 4.42151 3.13725 21.1449 3.13725 41.7742C3.13725 62.4035 19.8606 79.1268 40.4899 79.1268Z" fill="#26A17B"/>
<path fill-rule="evenodd" clip-rule="evenodd" d="M44.9769 45.0031V44.9984C44.7201 45.0171 43.3964 45.0965 40.4432 45.0965C38.0853 45.0965 36.4255 45.0264 35.8419 44.9984V45.0054C26.7652 44.6062 19.9903 43.0257 19.9903 41.1348C19.9903 39.2461 26.7652 37.6656 35.8419 37.2594V43.4319C36.4348 43.474 38.1344 43.5744 40.4829 43.5744C43.3007 43.5744 44.7131 43.4576 44.9769 43.4343V37.2641C54.0349 37.668 60.7934 39.2484 60.7934 41.1348C60.7934 43.0257 54.0349 44.6016 44.9769 45.0031ZM44.9769 36.6221V31.0986H57.6161V22.6755H23.2026V31.0986H35.8419V36.6198C25.5699 37.0913 17.8449 39.1271 17.8449 41.5643C17.8449 44.0016 25.5699 46.035 35.8419 46.5089V64.2094H44.9769V46.5042C55.2326 46.0326 62.9389 43.9992 62.9389 41.5643C62.9389 39.1294 55.2326 37.096 44.9769 36.6221Z" fill="white"/>
</svg>
