<svg width="80" height="81" viewBox="0 0 80 81" fill="none" xmlns="http://www.w3.org/2000/svg">
<g clip-path="url(#clip0_4_132)">
<path d="M36.5683 79.1268C57.1977 79.1268 73.921 62.4035 73.921 41.7742C73.921 21.1449 57.1977 4.42151 36.5683 4.42151C15.939 4.42151 -0.784317 21.1449 -0.784317 41.7742C-0.784317 62.4035 15.939 79.1268 36.5683 79.1268Z" fill="#627EEA"/>
<path d="M37.731 13.7595V34.4669L55.233 42.2876L37.731 13.7595Z" fill="white" fill-opacity="0.602"/>
<path d="M37.731 13.7596L20.2266 42.2877L37.731 34.467V13.7596Z" fill="white"/>
<path d="M37.731 55.7066V69.7768L55.2447 45.5466L37.731 55.7066Z" fill="white" fill-opacity="0.602"/>
<path d="M37.731 69.7768V55.7042L20.2266 45.5466L37.731 69.7768Z" fill="white"/>
<path d="M37.731 52.4501L55.233 42.2878L37.731 34.4718V52.4501Z" fill="white" fill-opacity="0.2"/>
<path d="M20.2266 42.2878L37.731 52.4501V34.4718L20.2266 42.2878Z" fill="white" fill-opacity="0.602"/>
</g>
<defs>
<clipPath id="clip0_4_132">
<rect y="0.5" width="80" height="80" rx="40" fill="white"/>
</clipPath>
</defs>
</svg>
