<svg width="81" height="80" viewBox="0 0 81 80" fill="none" xmlns="http://www.w3.org/2000/svg">
<path d="M40.1997 77.7994C61.2416 77.7994 78.2994 60.7416 78.2994 39.6997C78.2994 18.6578 61.2416 1.59998 40.1997 1.59998C19.1578 1.59998 2.10001 18.6578 2.10001 39.6997C2.10001 60.7416 19.1578 77.7994 40.1997 77.7994Z" fill="#F7931A"/>
<path d="M57.3184 34.9848C58.0661 29.9937 54.2633 27.3101 49.0674 25.5194L50.7533 18.7567L46.6386 17.7328L44.9955 24.3169C43.9144 24.0454 42.8048 23.793 41.6975 23.5406L43.3525 16.9136L39.2377 15.8873L37.5518 22.6476C36.6564 22.4429 35.7754 22.2428 34.9229 22.0285L34.9277 22.0071L29.2508 20.5903L28.1554 24.986C28.1554 24.986 31.2106 25.6861 31.1463 25.729C32.8131 26.1457 33.1132 27.2482 33.0632 28.1245L31.1439 35.8278C31.2582 35.8563 31.4058 35.8992 31.5725 35.9635L31.1367 35.8563L28.446 46.6481C28.2412 47.1529 27.7244 47.9125 26.5576 47.6244C26.6005 47.6839 23.5668 46.8791 23.5668 46.8791L21.5237 51.5891L26.8815 52.925C27.8768 53.175 28.8531 53.437 29.8128 53.6822L28.1102 60.5211L32.2226 61.5451L33.9085 54.7824C35.0324 55.0848 36.123 55.3658 37.1898 55.6325L35.5087 62.3666L39.6235 63.3905L41.326 56.5659C48.3459 57.8946 53.6227 57.3589 55.8444 51.0105C57.6351 45.9004 55.7563 42.95 52.063 41.0284C54.7538 40.4093 56.7779 38.64 57.3184 34.9848ZM47.9125 48.1721C46.6433 53.2846 38.0352 50.52 35.2444 49.827L37.5065 40.7664C40.2973 41.4641 49.2436 42.8429 47.9125 48.1721ZM49.1865 34.911C48.0268 39.5615 40.8641 37.197 38.5424 36.6183L40.5902 28.4031C42.9119 28.9817 50.3962 30.0604 49.1865 34.911Z" fill="white"/>
</svg>
