<svg width="80" height="81" viewBox="0 0 80 81" fill="none" xmlns="http://www.w3.org/2000/svg">
<g clip-path="url(#clip0_4_116)">
<path d="M40.4899 80.6956C61.1192 80.6956 77.8426 63.9722 77.8426 43.3429C77.8426 22.7136 61.1192 5.99023 40.4899 5.99023C19.8606 5.99023 3.13725 22.7136 3.13725 43.3429C3.13725 63.9722 19.8606 80.6956 40.4899 80.6956Z" fill="#C3A634"/>
<path fill-rule="evenodd" clip-rule="evenodd" d="M34.0653 40.0979H44.1365V45.4347H34.0653V56.6825H40.4176C42.9319 56.6825 44.9886 56.344 46.5901 55.6623C48.1916 54.983 49.4476 54.0422 50.3604 52.8375C51.294 51.5848 51.9295 50.1357 52.2187 48.6003C52.5559 46.8685 52.7202 45.1073 52.7089 43.343C52.7202 41.5786 52.5559 39.8174 52.2187 38.0856C51.9298 36.5501 51.2943 35.1009 50.3604 33.8484C49.4476 32.6438 48.1892 31.7029 46.5901 31.0236C44.9886 30.3419 42.9319 30.0034 40.4176 30.0034H34.0653V40.1003V40.0979ZM27.6079 45.4347H24.1481V40.1003H27.6079V24.6666H42.8968C45.7216 24.6666 48.1659 25.1569 50.232 26.1304C52.298 27.1086 53.9836 28.4416 55.2933 30.1341C56.6006 31.8243 57.5741 33.804 58.2114 36.0709C58.8488 38.3377 59.1663 40.7633 59.1663 43.343C59.1823 45.7994 58.8602 48.2464 58.2091 50.6151C57.5741 52.8796 56.6006 54.8616 55.2909 56.5518C53.9836 58.2443 52.298 59.5774 50.232 60.5555C48.1659 61.5314 45.7193 62.0193 42.8968 62.0193H27.6079V45.4347Z" fill="white"/>
</g>
<defs>
<clipPath id="clip0_4_116">
<rect y="0.5" width="80" height="80" rx="40" fill="white"/>
</clipPath>
</defs>
</svg>
